<svg width="96" height="96" xmlns="http://www.w3.org/2000/svg" xmlns:xlink="http://www.w3.org/1999/xlink" xml:space="preserve" overflow="hidden"><g transform="translate(-234 -569)"><path d="M298 599C298 607.837 290.837 615 282 615 273.163 615 266 607.837 266 599 266 590.163 273.163 583 282 583 290.837 583 298 590.163 298 599Z" fill="#C9C9C9"/><path d="M314 651 314 635C314 632.6 312.8 630.2 310.8 628.6 306.4 625 300.8 622.6 295.2 621 291.2 619.8 286.8 619 282 619 277.6 619 273.2 619.8 268.8 621 263.2 622.6 257.6 625.4 253.2 628.6 251.2 630.2 250 632.6 250 635L250 651 314 651Z" fill="#C9C9C9"/></g></svg>